<?xml version="1.0" standalone="no"?>
<!DOCTYPE svg PUBLIC "-//W3C//DTD SVG 20010904//EN"
 "http://www.w3.org/TR/2001/REC-SVG-20010904/DTD/svg10.dtd">
<svg version="1.0" xmlns="http://www.w3.org/2000/svg"
 width="608.000000pt" height="608.000000pt" viewBox="0 0 608.000000 608.000000"
 preserveAspectRatio="xMidYMid meet">
<metadata>
Created by potrace 1.11, written by Peter Selinger 2001-2013
</metadata>
<g transform="translate(0.000000,608.000000) scale(0.100000,-0.100000)"
fill="#000000" stroke="none">
<path d="M2959 6072 c-2 -6 -43 -12 -91 -13 -49 -2 -88 -6 -88 -9 0 -3 -21 -6
-47 -6 -27 -1 -68 -4 -93 -8 -25 -3 -63 -8 -85 -11 -35 -4 -64 -10 -115 -22
-8 -2 -26 -6 -40 -8 -14 -1 -27 -4 -30 -6 -3 -1 -9 -3 -15 -4 -5 -2 -12 -4
-15 -5 -8 -3 -44 -11 -65 -15 -11 -2 -20 -4 -20 -5 0 -1 -7 -3 -15 -5 -77 -20
-110 -30 -132 -39 -9 -4 -22 -9 -30 -10 -15 -3 -16 -4 -168 -64 -63 -25 -118
-50 -122 -56 -4 -6 -8 -8 -8 -3 0 4 -15 0 -32 -10 -18 -9 -36 -16 -40 -15 -5
1 -8 -3 -8 -8 0 -5 -3 -9 -7 -8 -11 2 -64 -24 -86 -42 -10 -8 -21 -15 -25 -16
-16 -2 -48 -19 -66 -36 -10 -9 -23 -15 -28 -12 -4 3 -8 0 -8 -6 0 -6 -8 -13
-17 -17 -18 -6 -118 -69 -140 -88 -7 -5 -19 -16 -27 -22 -8 -7 -18 -13 -22
-13 -3 0 -18 -10 -33 -22 -15 -13 -43 -34 -61 -48 -19 -14 -41 -33 -49 -42 -9
-10 -21 -18 -29 -18 -7 0 -11 -3 -9 -7 4 -9 -29 -44 -36 -37 -2 3 -21 -14 -41
-36 -20 -22 -36 -38 -36 -36 0 5 -171 -167 -237 -239 -23 -25 -40 -45 -38 -45
4 0 -22 -33 -50 -64 -6 -6 -22 -27 -35 -46 -13 -19 -31 -40 -40 -47 -8 -7 -10
-13 -5 -13 7 0 7 -3 0 -8 -14 -10 -105 -150 -105 -161 0 -5 -7 -12 -16 -15 -8
-3 -13 -10 -10 -14 3 -5 -4 -19 -15 -30 -11 -12 -17 -22 -14 -22 3 0 -10 -25
-30 -55 -19 -30 -33 -55 -30 -55 3 0 -5 -17 -18 -37 -13 -21 -25 -42 -27 -48
-5 -19 -18 -50 -46 -110 -15 -33 -29 -62 -29 -65 -3 -10 -17 -45 -27 -70 -12
-28 -19 -49 -20 -67 -1 -7 -6 -13 -11 -13 -6 0 -8 -3 -4 -6 3 -3 -3 -28 -13
-55 -11 -27 -17 -49 -15 -49 3 0 -1 -16 -9 -35 -9 -20 -15 -38 -16 -40 0 -3 0
-6 -1 -7 -2 -7 -8 -35 -13 -58 -3 -14 -8 -36 -11 -50 -4 -14 -8 -34 -10 -45
-2 -11 -6 -31 -10 -45 -6 -25 -13 -70 -19 -120 -2 -14 -4 -25 -6 -25 -1 0 -4
-16 -5 -35 -2 -19 -7 -60 -10 -90 -3 -30 -6 -81 -7 -112 0 -32 -4 -58 -9 -58
-13 0 -12 -387 1 -395 6 -3 10 -23 10 -45 0 -50 46 -324 71 -420 11 -41 22
-86 25 -100 3 -13 9 -29 15 -36 5 -6 7 -13 4 -16 -2 -2 11 -49 31 -104 19 -54
40 -113 45 -131 5 -18 14 -35 19 -38 6 -4 10 -13 10 -21 0 -14 111 -247 149
-313 66 -114 116 -191 123 -191 4 0 8 -6 8 -13 0 -7 8 -22 18 -33 10 -10 28
-36 41 -57 12 -20 27 -37 32 -37 5 0 9 -6 9 -12 0 -7 15 -30 33 -50 17 -20 50
-58 72 -85 68 -82 317 -326 385 -378 36 -27 74 -58 85 -68 11 -10 36 -28 55
-40 19 -12 40 -27 47 -33 21 -20 190 -124 202 -124 6 0 11 -3 11 -8 0 -4 15
-13 33 -21 17 -8 34 -17 37 -21 18 -23 298 -148 455 -203 161 -56 456 -125
559 -132 25 -2 48 -5 53 -8 4 -3 91 -11 193 -17 242 -17 455 -4 750 46 138 23
422 107 572 170 75 31 300 141 378 185 56 32 199 124 235 153 11 9 54 41 95
71 95 71 201 165 313 280 96 98 257 288 257 303 0 6 7 12 15 16 8 3 15 12 15
21 0 8 4 15 8 15 5 0 15 12 23 28 8 15 16 29 19 32 11 10 90 130 90 137 0 3 6
14 14 22 16 18 130 239 163 316 70 161 94 230 158 450 15 51 33 131 40 175 3
14 14 81 25 150 27 164 39 534 20 618 -46 200 -202 362 -385 400 -48 10 -133
8 -165 -5 -8 -3 -27 -7 -41 -8 -85 -8 -270 -158 -322 -261 -53 -105 -57 -140
-57 -550 0 -334 -2 -384 -17 -420 -22 -52 -59 -74 -127 -74 -46 0 -56 4 -84
33 -18 18 -37 49 -42 68 -6 19 -10 194 -10 409 0 221 -5 393 -11 420 -24 107
-108 228 -210 303 -36 27 -123 68 -151 71 -13 1 -30 6 -37 10 -7 5 -56 8 -109
9 -108 0 -178 -16 -260 -59 -58 -30 -182 -140 -182 -161 0 -7 -4 -13 -9 -13
-7 0 -43 -66 -62 -115 -24 -61 -29 -153 -29 -496 0 -393 -2 -412 -49 -453 -15
-13 -41 -21 -79 -24 -52 -3 -60 -1 -93 27 -22 19 -39 43 -43 63 -9 40 -8 763
0 821 11 75 45 181 82 252 20 39 40 72 44 73 5 2 8 8 8 13 0 15 121 138 180
184 106 81 247 138 393 156 255 32 536 -80 707 -281 24 -28 46 -50 51 -50 5 0
41 33 80 74 39 41 103 97 142 123 40 26 75 53 79 58 4 6 8 6 8 1 0 -5 6 -4 13
1 41 33 235 78 349 82 40 1 86 8 103 15 109 46 160 166 118 276 -47 120 -186
391 -205 398 -4 2 -8 9 -8 15 0 15 -76 129 -179 267 -85 113 -330 370 -446
468 -87 72 -276 212 -305 226 -14 6 -34 19 -44 28 -11 10 -24 18 -30 18 -5 0
-17 7 -26 15 -25 23 -317 169 -410 205 -47 18 -98 38 -115 45 -57 25 -269 85
-385 111 -107 23 -334 55 -457 64 -81 6 -171 13 -199 16 -31 4 -53 2 -55 -4z
m402 -2208 c28 -29 32 -40 33 -86 1 -83 -52 -138 -132 -138 -23 0 -44 -5 -47
-10 -4 -6 -11 -8 -16 -4 -17 10 -122 -18 -183 -50 -64 -33 -206 -165 -206
-191 0 -8 -3 -15 -8 -15 -4 0 -13 -15 -20 -32 -8 -18 -17 -42 -22 -53 -24 -57
-29 -137 -29 -482 0 -425 -2 -439 -64 -473 -44 -25 -84 -28 -131 -8 -43 17
-64 46 -72 98 -12 78 -6 829 7 848 2 2 2 4 13 52 13 57 55 151 90 203 14 21
26 39 26 41 0 6 50 63 91 105 51 52 97 89 149 119 25 14 48 30 51 35 3 5 8 8
10 7 5 -2 35 8 79 26 42 17 157 43 219 49 23 2 45 6 48 8 12 12 85 -19 114
-49z m-1678 20 c177 -40 396 -188 413 -280 13 -70 -39 -146 -110 -159 -41 -8
-90 11 -134 53 -98 92 -213 135 -360 134 -119 0 -202 -26 -297 -91 -80 -54
-161 -154 -196 -241 -28 -69 -38 -236 -19 -319 35 -158 173 -311 335 -374 64
-24 235 -34 302 -18 65 17 162 63 193 92 98 92 164 111 231 66 42 -28 59 -60
59 -115 0 -53 -26 -91 -108 -154 -155 -122 -297 -168 -505 -167 -110 0 -213
20 -317 60 -114 45 -294 208 -369 336 -69 117 -92 204 -98 368 -5 123 -3 152
17 229 25 101 72 199 130 271 22 28 48 62 57 76 9 14 28 33 42 42 14 9 49 35
76 57 61 50 178 107 265 131 88 23 295 25 393 3z"/>
<path d="M362 5944 c-12 -8 -22 -21 -21 -27 0 -9 2 -9 5 0 3 7 12 9 21 6 8 -3
19 0 24 8 20 31 6 38 -29 13z"/>
</g>
</svg>
